<svg width="627" height="264" viewBox="0 0 627 264" fill="none" xmlns="http://www.w3.org/2000/svg">
<path d="M233.524 40.7466C208.988 16.2786 174.158 1 135.524 1C61.2284 1 1 57.5025 1 127.202C1 196.901 61.2284 253.404 135.524 253.404C168.941 253.404 199.512 241.973 223.037 223.052" stroke="black" stroke-dasharray="10 10"/>
<path d="M400.882 33.885C378.934 19.127 352.06 10.4434 323.031 10.4434C289.039 10.4434 258.001 22.3505 234.369 41.9754M400.882 239.406C378.934 254.164 352.06 262.847 323.031 262.847C284.146 262.847 249.127 247.266 224.637 222.374" stroke="black" stroke-dasharray="10 10"/>
<path d="M400.141 34.1282C423.562 19.2224 452.298 10.4434 483.352 10.4434C562.134 10.4434 626 66.9459 626 136.645C626 206.345 562.134 262.847 483.352 262.847C452.298 262.847 423.562 254.068 400.141 239.162" stroke="black" stroke-dasharray="10 10"/>
</svg>
