<svg width="627" height="264" fill="none" xmlns="http://www.w3.org/2000/svg"><path d="M233.524 40.747C208.988 16.279 174.158 1 135.524 1 61.228 1 1 57.502 1 127.202c0 69.699 60.228 126.202 134.524 126.202 33.417 0 63.988-11.431 87.513-30.352M400.882 33.885c-21.948-14.758-48.822-23.442-77.851-23.442-33.992 0-65.03 11.908-88.662 31.532m166.513 197.431c-21.948 14.758-48.822 23.441-77.851 23.441-38.885 0-73.904-15.581-98.394-40.473" stroke="#000" stroke-dasharray="10 10"/><path d="M400.141 34.128c23.421-14.906 52.157-23.685 83.211-23.685C562.134 10.443 626 66.946 626 136.645c0 69.7-63.866 126.202-142.648 126.202-31.054 0-59.79-8.779-83.211-23.685" stroke="#000" stroke-dasharray="10 10"/></svg>