<svg width="669" height="288" viewBox="0 0 669 288" fill="none" xmlns="http://www.w3.org/2000/svg">
<path d="M249.149 44.4128C222.965 17.6879 185.794 1 144.564 1C65.2757 1 1 62.7143 1 138.843C1 214.971 65.2757 276.686 144.564 276.686C180.226 276.686 212.852 264.2 237.957 243.534" stroke="black" stroke-dasharray="10 10"/>
<path d="M427.754 36.9184C404.331 20.799 375.651 11.3145 344.672 11.3145C308.395 11.3145 275.272 24.3199 250.051 45.755M427.754 261.396C404.331 277.515 375.651 287 344.672 287C303.174 287 265.801 269.981 239.666 242.793" stroke="black" stroke-dasharray="10 10"/>
<path d="M426.963 37.184C451.958 20.9033 482.625 11.3145 515.766 11.3145C599.843 11.3145 668 73.0288 668 149.157C668 225.286 599.843 287 515.766 287C482.625 287 451.958 277.411 426.963 261.13" stroke="black" stroke-dasharray="10 10"/>
</svg>
