<svg width="532" height="238" viewBox="0 0 532 238" fill="none" xmlns="http://www.w3.org/2000/svg">
<path d="M198.18 36.8231C177.374 14.7705 147.838 1 115.076 1C52.0737 1 1 51.9251 1 114.744C1 177.564 52.0737 228.489 115.076 228.489C143.414 228.489 169.338 218.186 189.287 201.133" stroke="black" stroke-dasharray="10 10"/>
<path d="M340.1 30.6385C321.488 17.3372 298.699 9.51074 274.083 9.51074C245.257 9.51074 218.937 20.2425 198.897 37.9302M340.1 215.872C321.488 229.173 298.699 237 274.083 237C241.108 237 211.412 222.956 190.645 200.521" stroke="black" stroke-dasharray="10 10"/>
<path d="M339.472 30.8577C359.332 17.4232 383.701 9.51074 410.035 9.51074C476.842 9.51074 531 60.4358 531 123.255C531 186.074 476.842 237 410.035 237C383.701 237 359.332 229.087 339.472 215.653" stroke="black" stroke-dasharray="10 10"/>
</svg>
