<svg width="532" height="238" fill="none" xmlns="http://www.w3.org/2000/svg"><path d="M198.18 36.823C177.374 14.77 147.838 1 115.076 1 52.074 1 1 51.925 1 114.744c0 62.82 51.074 113.745 114.076 113.745 28.338 0 54.262-10.303 74.211-27.356M340.1 30.639C321.488 17.337 298.699 9.51 274.083 9.51c-28.826 0-55.146 10.732-75.186 28.42M340.1 215.871C321.488 229.173 298.699 237 274.083 237c-32.975 0-62.671-14.044-83.438-36.479" stroke="#000" stroke-dasharray="10 10"/><path d="M339.472 30.858c19.86-13.435 44.229-21.347 70.563-21.347C476.842 9.51 531 60.436 531 123.255S476.842 237 410.035 237c-26.334 0-50.703-7.913-70.563-21.347" stroke="#000" stroke-dasharray="10 10"/></svg>