<svg width="669" height="288" fill="none" xmlns="http://www.w3.org/2000/svg"><path d="M249.149 44.413C222.965 17.688 185.794 1 144.564 1 65.276 1 1 62.714 1 138.843c0 76.128 64.276 137.843 143.564 137.843 35.662 0 68.288-12.486 93.393-33.152M427.754 36.918c-23.423-16.119-52.103-25.603-83.082-25.603-36.277 0-69.4 13.005-94.621 34.44m177.703 215.641C404.331 277.515 375.651 287 344.672 287c-41.498 0-78.871-17.019-105.006-44.207" stroke="#000" stroke-dasharray="10 10"/><path d="M426.963 37.184c24.995-16.28 55.662-25.87 88.803-25.87C599.843 11.315 668 73.03 668 149.157 668 225.286 599.843 287 515.766 287c-33.141 0-63.808-9.589-88.803-25.87" stroke="#000" stroke-dasharray="10 10"/></svg>